<svg xmlns="http://www.w3.org/2000/svg" shape-rendering="geometricPrecision" text-rendering="geometricPrecision" image-rendering="optimizeQuality" fill="#7e5ae2" fill-rule="evenodd" clip-rule="evenodd" viewBox="0 0 512 498.93"><path d="M389.76 0c33.74 0 64.31 13.69 86.42 35.8C498.31 57.92 512 88.5 512 122.24c0 33.75-13.69 64.33-35.8 86.44-22.13 22.12-52.7 35.82-86.44 35.82-33.71 0-64.27-13.68-86.4-35.82-22.19-22.2-35.86-52.76-35.86-86.44 0-33.74 13.69-64.32 35.82-86.44C325.43 13.69 356.01 0 389.76 0zM127.13 93.07 45.4 179.44h81.73V93.07zM0 195.82c0-1.15.15-2.27.41-3.35.13-3.14 1.36-6.27 3.69-8.73L128.47 52.32c2.31-4.18 6.78-7.01 11.9-7.01h113.41c-4.87 8.6-8.97 17.7-12.16 27.2h-87.3v120.52c0 7.5-6.09 13.59-13.59 13.59H27.2v265.11h392.02V275.68c9.4-1.8 18.49-4.44 27.21-7.83V471.9c0 7.39-3.05 14.15-7.93 19.05-4.96 4.94-11.72 7.98-19.11 7.98H27.04c-7.43 0-14.21-3.06-19.09-7.94C3.07 486.1 0 479.32 0 471.9V195.82zm324.89 79.39c7.53 0 13.66 6.05 13.66 13.52s-6.13 13.52-13.66 13.52H121.54c-7.54 0-13.66-6.05-13.66-13.52s6.12-13.52 13.66-13.52h203.35zm0 91.23c7.53 0 13.66 6.05 13.66 13.52s-6.13 13.52-13.66 13.52H121.54c-7.54 0-13.66-6.05-13.66-13.52s6.12-13.52 13.66-13.52h203.35zm64.66-311.07c22.71 14.37 43.2 21.17 60.78 19.58 3.08 62.14-19.9 98.86-60.55 114.17-39.25-14.33-62.51-49.45-60.78-115.07 20.66 1.08 40.93-3.41 60.55-18.63v-.05zm.54 15.37c17.5 11.05 33.27 16.32 46.82 15.08 2.36 47.88-15.31 76.15-46.63 87.93l-.19-103.01z"/></svg>